<svg width="79" height="76" viewBox="0 0 79 76" fill="none" xmlns="http://www.w3.org/2000/svg">
<circle cx="44" cy="41" r="35" fill="#CDE2F1" fill-opacity="0.3"/>
<path d="M35.0013 0C15.6707 0 0 15.6682 0 34.9937C0 54.3293 15.6707 70 35.0013 70C54.3318 70 69.9975 54.3268 69.9975 34.9937C69.9975 15.6682 54.3318 0 35.0013 0ZM35.0013 66.4153C17.6458 66.4153 3.58474 52.3467 3.58474 34.9912C3.58474 17.6433 17.6458 3.57973 35.0013 3.57973C52.3517 3.57973 66.4153 17.6433 66.4153 34.9912C66.4128 52.3467 52.3492 66.4153 35.0013 66.4153Z" fill="#5A93CA"/>
<path d="M34.811 22.443L43.142 18V50.377H34.811V22.443ZM43.976 18.001V50.378H52.308V22.443L43.976 18.001ZM15 50.377H28.071V27.375L15 33.736V50.377ZM28.866 50.377H33.978V30.101L28.866 27.375V50.377Z" fill="#5A93CA"/>
</svg>
