<svg width="79" height="76" viewBox="0 0 79 76" fill="none" xmlns="http://www.w3.org/2000/svg">
  <circle cx="44" cy="41" r="35" fill="#CDE2F1" fill-opacity="0.5" />
  <path
    d="M35.0013 0C15.6707 0 0 15.6682 0 34.9937C0 54.3293 15.6707 70 35.0013 70C54.3318 70 69.9975 54.3268 69.9975 34.9937C69.9975 15.6682 54.3318 0 35.0013 0ZM35.0013 66.4153C17.6458 66.4153 3.58474 52.3467 3.58474 34.9912C3.58474 17.6433 17.6458 3.57973 35.0013 3.57973C52.3517 3.57973 66.4153 17.6433 66.4153 34.9912C66.4128 52.3467 52.3492 66.4153 35.0013 66.4153Z"
    fill="#5A93CA" />
  <path
    d="M53 20.9375V28.6875L35.5 36.4375L18 28.6875V20.9375C18 20.4236 18.1844 19.9308 18.5126 19.5675C18.8408 19.2041 19.2859 19 19.75 19H51.25C51.7141 19 52.1592 19.2041 52.4874 19.5675C52.8156 19.9308 53 20.4236 53 20.9375ZM18 32.8609V48.0625C18 48.5764 18.1844 49.0692 18.5126 49.4325C18.8408 49.7959 19.2859 50 19.75 50H51.25C51.7141 50 52.1592 49.7959 52.4874 49.4325C52.8156 49.0692 53 48.5764 53 48.0625V32.8609L35.5 40.6109L18 32.8609Z"
    fill="#5A93CA" />
</svg>