<svg width="126" height="91" viewBox="0 0 126 91" fill="none" xmlns="http://www.w3.org/2000/svg">
<rect opacity="0.5" x="16.3057" width="113" height="63" rx="31.5" transform="rotate(15 16.3057 0)" fill="#CDE2F1"/>
<path d="M49 45.7778L63 61.3333M63 61.3333L77 45.7778M63 61.3333V24" stroke="#5A93CA" stroke-width="3" stroke-linecap="square" stroke-linejoin="round"/>
<path fill-rule="evenodd" clip-rule="evenodd" d="M23.5 18.7407C23.5 20.1215 24.6193 21.2407 26 21.2407H42.7407H44.2407V24.2407H42.7407H26C22.9624 24.2407 20.5 21.7783 20.5 18.7407V6C20.5 2.96244 22.9624 0.5 26 0.5H100.963C104.001 0.5 106.463 2.96243 106.463 6V18.7407C106.463 21.7783 104.001 24.2407 100.963 24.2407H84.2222H82.7222V21.2407H84.2222H100.963C102.344 21.2407 103.463 20.1215 103.463 18.7407V6C103.463 4.61929 102.344 3.5 100.963 3.5H26C24.6193 3.5 23.5 4.61929 23.5 6V18.7407ZM28.6852 38.2963V36.7963H25.6852V38.2963V78.963C25.6852 83.1051 29.043 86.463 33.1852 86.463H93.7778C97.9199 86.463 101.278 83.1051 101.278 78.963V38.2963V36.7963H98.2778V38.2963V78.963C98.2778 81.4483 96.2631 83.463 93.7778 83.463H33.1852C30.6999 83.463 28.6852 81.4483 28.6852 78.963V38.2963Z" fill="#5A93CA"/>
</svg>
