<svg width="79" height="76" viewBox="0 0 79 76" fill="none" xmlns="http://www.w3.org/2000/svg">
  <circle cx="44" cy="41" r="35" fill="#CDE2F1" fill-opacity="0.5" />
  <path
    d="M35.0013 0C15.6707 0 0 15.6682 0 34.9937C0 54.3293 15.6707 70 35.0013 70C54.3318 70 69.9975 54.3268 69.9975 34.9937C69.9975 15.6682 54.3318 0 35.0013 0ZM35.0013 66.4153C17.6458 66.4153 3.58474 52.3467 3.58474 34.9912C3.58474 17.6433 17.6458 3.57973 35.0013 3.57973C52.3517 3.57973 66.4153 17.6433 66.4153 34.9912C66.4128 52.3467 52.3492 66.4153 35.0013 66.4153Z"
    fill="#5A93CA" />
  <path fill-rule="evenodd" clip-rule="evenodd"
    d="M34.5 14C29.8587 14 25.4075 15.6389 22.1256 18.5561C18.8437 21.4733 17 25.43 17 29.5556V29.6444C17.0054 32.5604 17.9511 35.4138 19.725 37.8667L21.225 39.6667L32.5 53.1111C32.7329 53.3871 33.0348 53.6111 33.382 53.7654C33.7291 53.9197 34.1119 54 34.5 54C34.8881 54 35.2709 53.9197 35.618 53.7654C35.9652 53.6111 36.2671 53.3871 36.5 53.1111L47.775 39.6667L49.275 37.8667C51.0489 35.4138 51.9946 32.5604 52 29.6444V29.5556C52 25.43 50.1563 21.4733 46.8744 18.5561C43.5925 15.6389 39.1413 14 34.5 14ZM34.5 38.4444C31.8478 38.4444 29.3043 37.5079 27.4289 35.841C25.5536 34.174 24.5 31.913 24.5 29.5556C24.5 27.1981 25.5536 24.9372 27.4289 23.2702C29.3043 21.6032 31.8478 20.6667 34.5 20.6667C37.1522 20.6667 39.6957 21.6032 41.5711 23.2702C43.4464 24.9372 44.5 27.1981 44.5 29.5556C44.5 31.913 43.4464 34.174 41.5711 35.841C39.6957 37.5079 37.1522 38.4444 34.5 38.4444Z"
    fill="#5A93CA" />
</svg>