<svg width="500" height="387" viewBox="0 0 500 387" fill="none" xmlns="http://www.w3.org/2000/svg">
<path d="M52.4 190V386.2H0V152.9C18.4 163.7 36.2 176.2 52.4 190Z" fill="url(#paint0_linear_127_9)"/>
<path d="M118.8 265.4V386.2H66.3V202.7C86.1 221.4 103.9 242.6 118.8 265.4Z" fill="url(#paint1_linear_127_9)"/>
<path d="M0 75.9V134C95.8 186.2 164.3 278.2 185.2 384.5C190 351 198.1 318.7 209.2 287.6C167.9 194.6 93 118.8 0 75.9Z" fill="url(#paint2_linear_127_9)"/>
<path d="M0 0V56.2C95.1 97.8 172.5 171.8 218.2 264.2C226.4 244.5 235.9 225.2 246.4 206.9C190 112.9 102.9 39.6 0 0Z" fill="url(#paint3_linear_127_9)"/>
<path d="M185.2 384.5C190 351 198.1 318.7 209.2 287.6C204.7 277.5 199.8 267.7 194.5 258.1C184.8 277.2 175.5 298.3 166.8 322C174.8 342 181 362.9 185.2 384.5Z" fill="url(#paint4_linear_127_9)"/>
<path d="M204.6 239C209.4 247.3 214 255.6 218.2 264.2C226.4 244.5 235.9 225.2 246.4 206.9C242.8 201 239.1 195.2 235.3 189.4C225.1 204.3 214.7 220.6 204.6 239Z" fill="url(#paint5_linear_127_9)"/>
<path d="M0 152.9V178.1C19.2 192 36.7 207.7 52.4 224V190C36.2 176.2 18.4 163.7 0 152.9Z" fill="url(#paint6_linear_127_9)"/>
<path d="M118.8 265.4C104 242.6 86.2 221.4 66.4 202.7V239.1C88.1 263.5 105.8 288.4 118.8 310.1V265.4Z" fill="url(#paint7_linear_127_9)"/>
<path d="M363.9 174.8V260C339.6 297.9 322.3 340.6 313.6 386.2H260.4C273.9 305.6 310.9 232.9 363.9 174.8Z" fill="url(#paint8_linear_127_9)"/>
<path d="M363.9 78.5V148.6C300.6 212 256.7 294.4 241.9 386.2H189C206.6 263 271.2 154.4 363.9 78.5Z" fill="url(#paint9_linear_127_9)"/>
<path d="M363.9 174.8V260C353.7 276.1 344.6 293 336.9 310.7L342 200.9C348.9 191.8 356.2 183.1 363.9 174.8Z" fill="url(#paint10_linear_127_9)"/>
<path d="M363.9 78.6V148.5C356.9 155.6 350 163 343.4 170.6L346.8 93.1C352.5 88.1 358.2 83.4 363.9 78.6Z" fill="url(#paint11_linear_127_9)"/>
<path d="M380.6 386.2H433C433 267.8 433 149.6 433 31.2C414.7 41.6 397.4 53 380.6 65.4C380.6 172.4 380.6 279.3 380.6 386.2Z" fill="url(#paint12_linear_127_9)"/>
<path d="M447.1 23.7V386.2H499.4V0C481.4 6.9 464.1 14.8 447.1 23.7Z" fill="url(#paint13_linear_127_9)"/>
<rect y="206" width="499" height="116" fill="white" fill-opacity="0.8"/>
<path d="M37.793 269.324V272.02C37.793 275.223 37.3926 278.094 36.5918 280.633C35.791 283.172 34.6387 285.33 33.1348 287.107C31.6309 288.885 29.8242 290.242 27.7148 291.18C25.625 292.117 23.2812 292.586 20.6836 292.586C18.1641 292.586 15.8496 292.117 13.7402 291.18C11.6504 290.242 9.83398 288.885 8.29102 287.107C6.76758 285.33 5.58594 283.172 4.74609 280.633C3.90625 278.094 3.48633 275.223 3.48633 272.02V269.324C3.48633 266.121 3.89648 263.26 4.7168 260.74C5.55664 258.201 6.73828 256.043 8.26172 254.266C9.78516 252.469 11.5918 251.102 13.6816 250.164C15.791 249.227 18.1055 248.758 20.625 248.758C23.2227 248.758 25.5664 249.227 27.6562 250.164C29.7656 251.102 31.5723 252.469 33.0762 254.266C34.5996 256.043 35.7617 258.201 36.5625 260.74C37.3828 263.26 37.793 266.121 37.793 269.324ZM32.1973 272.02V269.266C32.1973 266.727 31.9336 264.48 31.4062 262.527C30.8984 260.574 30.1465 258.934 29.1504 257.605C28.1543 256.277 26.9336 255.271 25.4883 254.588C24.0625 253.904 22.4414 253.562 20.625 253.562C18.8672 253.562 17.2754 253.904 15.8496 254.588C14.4434 255.271 13.2324 256.277 12.2168 257.605C11.2207 258.934 10.4492 260.574 9.90234 262.527C9.35547 264.48 9.08203 266.727 9.08203 269.266V272.02C9.08203 274.578 9.35547 276.844 9.90234 278.816C10.4492 280.77 11.2305 282.42 12.2461 283.768C13.2812 285.096 14.502 286.102 15.9082 286.785C17.334 287.469 18.9258 287.811 20.6836 287.811C22.5195 287.811 24.1504 287.469 25.5762 286.785C27.002 286.102 28.2031 285.096 29.1797 283.768C30.1758 282.42 30.9277 280.77 31.4355 278.816C31.9434 276.844 32.1973 274.578 32.1973 272.02ZM79.1016 269.324V272.02C79.1016 275.223 78.7012 278.094 77.9004 280.633C77.0996 283.172 75.9473 285.33 74.4434 287.107C72.9395 288.885 71.1328 290.242 69.0234 291.18C66.9336 292.117 64.5898 292.586 61.9922 292.586C59.4727 292.586 57.1582 292.117 55.0488 291.18C52.959 290.242 51.1426 288.885 49.5996 287.107C48.0762 285.33 46.8945 283.172 46.0547 280.633C45.2148 278.094 44.7949 275.223 44.7949 272.02V269.324C44.7949 266.121 45.2051 263.26 46.0254 260.74C46.8652 258.201 48.0469 256.043 49.5703 254.266C51.0938 252.469 52.9004 251.102 54.9902 250.164C57.0996 249.227 59.4141 248.758 61.9336 248.758C64.5312 248.758 66.875 249.227 68.9648 250.164C71.0742 251.102 72.8809 252.469 74.3848 254.266C75.9082 256.043 77.0703 258.201 77.8711 260.74C78.6914 263.26 79.1016 266.121 79.1016 269.324ZM73.5059 272.02V269.266C73.5059 266.727 73.2422 264.48 72.7148 262.527C72.207 260.574 71.4551 258.934 70.459 257.605C69.4629 256.277 68.2422 255.271 66.7969 254.588C65.3711 253.904 63.75 253.562 61.9336 253.562C60.1758 253.562 58.584 253.904 57.1582 254.588C55.752 255.271 54.541 256.277 53.5254 257.605C52.5293 258.934 51.7578 260.574 51.2109 262.527C50.6641 264.48 50.3906 266.727 50.3906 269.266V272.02C50.3906 274.578 50.6641 276.844 51.2109 278.816C51.7578 280.77 52.5391 282.42 53.5547 283.768C54.5898 285.096 55.8105 286.102 57.2168 286.785C58.6426 287.469 60.2344 287.811 61.9922 287.811C63.8281 287.811 65.459 287.469 66.8848 286.785C68.3105 286.102 69.5117 285.096 70.4883 283.768C71.4844 282.42 72.2363 280.77 72.7441 278.816C73.252 276.844 73.5059 274.578 73.5059 272.02ZM120.41 269.324V272.02C120.41 275.223 120.01 278.094 119.209 280.633C118.408 283.172 117.256 285.33 115.752 287.107C114.248 288.885 112.441 290.242 110.332 291.18C108.242 292.117 105.898 292.586 103.301 292.586C100.781 292.586 98.4668 292.117 96.3574 291.18C94.2676 290.242 92.4512 288.885 90.9082 287.107C89.3848 285.33 88.2031 283.172 87.3633 280.633C86.5234 278.094 86.1035 275.223 86.1035 272.02V269.324C86.1035 266.121 86.5137 263.26 87.334 260.74C88.1738 258.201 89.3555 256.043 90.8789 254.266C92.4023 252.469 94.209 251.102 96.2988 250.164C98.4082 249.227 100.723 248.758 103.242 248.758C105.84 248.758 108.184 249.227 110.273 250.164C112.383 251.102 114.189 252.469 115.693 254.266C117.217 256.043 118.379 258.201 119.18 260.74C120 263.26 120.41 266.121 120.41 269.324ZM114.814 272.02V269.266C114.814 266.727 114.551 264.48 114.023 262.527C113.516 260.574 112.764 258.934 111.768 257.605C110.771 256.277 109.551 255.271 108.105 254.588C106.68 253.904 105.059 253.562 103.242 253.562C101.484 253.562 99.8926 253.904 98.4668 254.588C97.0605 255.271 95.8496 256.277 94.834 257.605C93.8379 258.934 93.0664 260.574 92.5195 262.527C91.9727 264.48 91.6992 266.727 91.6992 269.266V272.02C91.6992 274.578 91.9727 276.844 92.5195 278.816C93.0664 280.77 93.8477 282.42 94.8633 283.768C95.8984 285.096 97.1191 286.102 98.5254 286.785C99.9512 287.469 101.543 287.811 103.301 287.811C105.137 287.811 106.768 287.469 108.193 286.785C109.619 286.102 110.82 285.096 111.797 283.768C112.793 282.42 113.545 280.77 114.053 278.816C114.561 276.844 114.814 274.578 114.814 272.02ZM141.885 260.564V257.02C141.885 255.828 142.08 254.588 142.471 253.299C142.881 251.99 143.467 250.74 144.229 249.549C144.99 248.338 145.908 247.293 146.982 246.414L150.059 248.553C149.16 249.842 148.467 251.17 147.979 252.537C147.49 253.885 147.246 255.35 147.246 256.932V260.564H141.885ZM151.113 260.564V257.02C151.113 255.828 151.309 254.588 151.699 253.299C152.109 251.99 152.695 250.74 153.457 249.549C154.219 248.338 155.137 247.293 156.211 246.414L159.287 248.553C158.389 249.842 157.695 251.17 157.207 252.537C156.719 253.885 156.475 255.35 156.475 256.932V260.564H151.113ZM178.184 277.85L189.463 249.344H195.967L180.879 284.881C180.449 285.877 179.971 286.844 179.443 287.781C178.916 288.699 178.271 289.52 177.51 290.242C176.748 290.965 175.801 291.541 174.668 291.971C173.555 292.4 172.168 292.615 170.508 292.615C170.039 292.615 169.482 292.586 168.838 292.527C168.193 292.488 167.773 292.439 167.578 292.381L167.754 287.869C167.969 287.908 168.389 287.947 169.014 287.986C169.639 288.006 170.098 288.016 170.391 288.016C171.504 288.016 172.383 287.791 173.027 287.342C173.672 286.893 174.189 286.326 174.58 285.643C174.99 284.939 175.361 284.227 175.693 283.504L178.184 277.85ZM168.604 249.344L180.469 275.916L181.875 281.16L177.129 281.512L162.275 249.344H168.604ZM208.623 249.344V292H202.969V249.344H208.623ZM234.902 249.344L216.387 272.811H206.367L205.488 268.123H213.018L227.9 249.344H234.902ZM229.219 292L213.193 272.078L216.357 267.127L236.133 292H229.219ZM254.268 260.564V257.02C254.268 255.828 254.463 254.588 254.854 253.299C255.264 251.99 255.85 250.74 256.611 249.549C257.373 248.338 258.291 247.293 259.365 246.414L262.441 248.553C261.543 249.842 260.85 251.17 260.361 252.537C259.873 253.885 259.629 255.35 259.629 256.932V260.564H254.268ZM263.496 260.564V257.02C263.496 255.828 263.691 254.588 264.082 253.299C264.492 251.99 265.078 250.74 265.84 249.549C266.602 248.338 267.52 247.293 268.594 246.414L271.67 248.553C270.771 249.842 270.078 251.17 269.59 252.537C269.102 253.885 268.857 255.35 268.857 256.932V260.564H263.496ZM279.141 249.344H284.619L298.594 284.119L312.539 249.344H318.047L300.703 292H296.426L279.141 249.344ZM277.354 249.344H282.188L282.979 275.359V292H277.354V249.344ZM314.971 249.344H319.805V292H314.18V275.359L314.971 249.344ZM346.055 253.123L331.934 292H326.162L342.422 249.344H346.143L346.055 253.123ZM357.891 292L343.74 253.123L343.652 249.344H347.373L363.691 292H357.891ZM357.158 276.209V280.838H333.193V276.209H357.158ZM385.137 275.271H373.74V270.672H385.137C387.344 270.672 389.131 270.32 390.498 269.617C391.865 268.914 392.861 267.938 393.486 266.688C394.131 265.438 394.453 264.012 394.453 262.41C394.453 260.945 394.131 259.568 393.486 258.279C392.861 256.99 391.865 255.955 390.498 255.174C389.131 254.373 387.344 253.973 385.137 253.973H375.059V292H369.404V249.344H385.137C388.359 249.344 391.084 249.9 393.311 251.014C395.537 252.127 397.227 253.67 398.379 255.643C399.531 257.596 400.107 259.832 400.107 262.352C400.107 265.086 399.531 267.42 398.379 269.354C397.227 271.287 395.537 272.762 393.311 273.777C391.084 274.773 388.359 275.271 385.137 275.271ZM423.018 249.344V292H417.451V249.344H423.018ZM436.729 249.344V253.973H403.77V249.344H436.729ZM456.504 253.123L442.383 292H436.611L452.871 249.344H456.592L456.504 253.123ZM468.34 292L454.189 253.123L454.102 249.344H457.822L474.141 292H468.34ZM467.607 276.209V280.838H443.643V276.209H467.607ZM481.348 247V250.75C481.348 251.922 481.143 253.162 480.732 254.471C480.342 255.76 479.766 257.01 479.004 258.221C478.242 259.412 477.324 260.457 476.25 261.355L473.145 259.217C474.062 257.928 474.756 256.609 475.225 255.262C475.713 253.895 475.957 252.42 475.957 250.838V247H481.348ZM490.342 247V250.75C490.342 251.922 490.137 253.162 489.727 254.471C489.336 255.76 488.76 257.01 487.998 258.221C487.236 259.412 486.318 260.457 485.244 261.355L482.139 259.217C483.057 257.928 483.75 256.609 484.219 255.262C484.707 253.895 484.951 252.42 484.951 250.838V247H490.342Z" fill="#22364A"/>
<defs>
<linearGradient id="paint0_linear_127_9" x1="26.2066" y1="197.963" x2="26.2066" y2="392.363" gradientUnits="userSpaceOnUse">
<stop stop-color="#A9C7E3"/>
<stop offset="0.185" stop-color="#5A93CA"/>
<stop offset="1" stop-color="#2E6FAE"/>
</linearGradient>
<linearGradient id="paint1_linear_127_9" x1="92.5463" y1="197.962" x2="92.5463" y2="392.364" gradientUnits="userSpaceOnUse">
<stop stop-color="white"/>
<stop offset="0.535" stop-color="#5A93CA"/>
<stop offset="1" stop-color="#2E6FAE"/>
</linearGradient>
<linearGradient id="paint2_linear_127_9" x1="194.057" y1="311.532" x2="-108.277" y2="21.0543" gradientUnits="userSpaceOnUse">
<stop stop-color="#FAFAFA"/>
<stop offset="0.34" stop-color="#5A93CA"/>
<stop offset="0.470127" stop-color="#518CC4"/>
<stop offset="1" stop-color="#2E6FAE"/>
</linearGradient>
<linearGradient id="paint3_linear_127_9" x1="255.908" y1="247.157" x2="-46.4249" y2="-43.3198" gradientUnits="userSpaceOnUse">
<stop stop-color="white"/>
<stop offset="0.192" stop-color="#95B8DA"/>
<stop offset="0.4202" stop-color="#5A93CA"/>
</linearGradient>
<linearGradient id="paint4_linear_127_9" x1="130.514" y1="260.164" x2="246.641" y2="379.758" gradientUnits="userSpaceOnUse">
<stop stop-color="#6FADEA"/>
<stop offset="1" stop-color="#2E6FAE"/>
</linearGradient>
<linearGradient id="paint5_linear_127_9" x1="196.718" y1="195.88" x2="312.846" y2="315.473" gradientUnits="userSpaceOnUse">
<stop stop-color="#77B2EB"/>
<stop offset="0.4202" stop-color="#5A93CA"/>
</linearGradient>
<linearGradient id="paint6_linear_127_9" x1="-0.229299" y1="262.181" x2="56.9672" y2="102.724" gradientUnits="userSpaceOnUse">
<stop stop-color="#67A3DD"/>
<stop offset="1" stop-color="#2E6FAE"/>
</linearGradient>
<linearGradient id="paint7_linear_127_9" x1="80.1369" y1="291.009" x2="137.334" y2="131.551" gradientUnits="userSpaceOnUse">
<stop stop-color="#4784C0"/>
<stop offset="1" stop-color="#2E6FAE"/>
</linearGradient>
<linearGradient id="paint8_linear_127_9" x1="280.545" y1="382.074" x2="400.138" y2="127.29" gradientUnits="userSpaceOnUse">
<stop stop-color="#2889E8"/>
<stop offset="0.500029" stop-color="#5A93CA"/>
<stop offset="0.879052" stop-color="white"/>
</linearGradient>
<linearGradient id="paint9_linear_127_9" x1="223.592" y1="355.341" x2="343.186" y2="100.556" gradientUnits="userSpaceOnUse">
<stop offset="0.5" stop-color="#538FC9"/>
<stop offset="1" stop-color="#4D8BC8"/>
</linearGradient>
<linearGradient id="paint10_linear_127_9" x1="350" y1="303" x2="337" y2="107.5" gradientUnits="userSpaceOnUse">
<stop stop-color="#CAD9E9"/>
<stop offset="0.595" stop-color="#5A93CA"/>
<stop offset="1" stop-color="#5A93CA"/>
</linearGradient>
<linearGradient id="paint11_linear_127_9" x1="364" y1="47.5" x2="358" y2="176.5" gradientUnits="userSpaceOnUse">
<stop offset="0.00943232" stop-color="#B1D6FB"/>
<stop offset="1" stop-color="#3B8DDB"/>
</linearGradient>
<linearGradient id="paint12_linear_127_9" x1="406.854" y1="73.2697" x2="406.854" y2="425.117" gradientUnits="userSpaceOnUse">
<stop stop-color="#AECEED"/>
<stop offset="1" stop-color="#5A93CA"/>
</linearGradient>
<linearGradient id="paint13_linear_127_9" x1="473.268" y1="73.2697" x2="473.268" y2="425.116" gradientUnits="userSpaceOnUse">
<stop stop-color="#6BACEA"/>
<stop offset="1" stop-color="#5A93CA"/>
</linearGradient>
</defs>
</svg>
