<svg width="621" height="286" viewBox="0 0 621 286" fill="none" xmlns="http://www.w3.org/2000/svg">
<path fill-rule="evenodd" clip-rule="evenodd" d="M171.728 175.05L316.937 153.679V207.227L171.728 216.111V175.05Z" fill="#218380" fill-opacity="0.9"/>
<path fill-rule="evenodd" clip-rule="evenodd" d="M171.728 104.694L316.937 70.8364V127.986L171.728 149.357V104.694Z" fill="#218380" fill-opacity="0.9"/>
<path fill-rule="evenodd" clip-rule="evenodd" d="M0 174.69V144.794L119.205 116.94V157.161L0 174.69Z" fill="#218380" fill-opacity="0.85"/>
<path fill-rule="evenodd" clip-rule="evenodd" d="M0 226.557V200.263L119.205 182.734V219.233L0 226.557Z" fill="#218380" fill-opacity="0.85"/>
<path fill-rule="evenodd" clip-rule="evenodd" d="M119.205 284.306H0V251.169L119.205 243.965V284.306Z" fill="#218380" fill-opacity="0.85"/>
<path fill-rule="evenodd" clip-rule="evenodd" d="M316.937 284.306H171.728V240.724L316.937 231.839V284.306Z" fill="#218380" fill-opacity="0.9"/>
<path fill-rule="evenodd" clip-rule="evenodd" d="M621 213.47V284.306H369.716V228.718L621 213.47Z" fill="#218380"/>
<path fill-rule="evenodd" clip-rule="evenodd" d="M621 108.896V188.857L369.716 203.985V145.995L621 108.896Z" fill="#218380"/>
<path fill-rule="evenodd" clip-rule="evenodd" d="M621 0V83.3228L369.716 120.302V58.5901L621 0Z" fill="#218380"/>
<rect y="169.306" width="621" height="116" fill="white" fill-opacity="0.8"/>
<path d="M53.0918 229.545V232.689C53.0918 236.426 52.6247 239.776 51.6904 242.738C50.7562 245.701 49.4118 248.218 47.6572 250.292C45.9027 252.366 43.7949 253.949 41.334 255.043C38.8958 256.137 36.1615 256.684 33.1309 256.684C30.1914 256.684 27.4912 256.137 25.0303 255.043C22.5921 253.949 20.473 252.366 18.6729 250.292C16.8955 248.218 15.5169 245.701 14.5371 242.738C13.5573 239.776 13.0674 236.426 13.0674 232.689V229.545C13.0674 225.808 13.5459 222.47 14.5029 219.53C15.4827 216.568 16.8613 214.05 18.6387 211.977C20.416 209.88 22.5238 208.285 24.9619 207.191C27.4229 206.098 30.123 205.551 33.0625 205.551C36.0931 205.551 38.8275 206.098 41.2656 207.191C43.7266 208.285 45.8343 209.88 47.5889 211.977C49.3662 214.05 50.722 216.568 51.6562 219.53C52.6133 222.47 53.0918 225.808 53.0918 229.545ZM46.5635 232.689V229.477C46.5635 226.514 46.2559 223.894 45.6406 221.615C45.0482 219.337 44.1709 217.423 43.0088 215.873C41.8467 214.324 40.4225 213.15 38.7363 212.353C37.0729 211.555 35.1816 211.156 33.0625 211.156C31.0117 211.156 29.1546 211.555 27.4912 212.353C25.8506 213.15 24.4378 214.324 23.2529 215.873C22.0908 217.423 21.1908 219.337 20.5527 221.615C19.9147 223.894 19.5957 226.514 19.5957 229.477V232.689C19.5957 235.674 19.9147 238.318 20.5527 240.619C21.1908 242.898 22.1022 244.823 23.2871 246.396C24.4948 247.945 25.9189 249.118 27.5596 249.916C29.223 250.714 31.0801 251.112 33.1309 251.112C35.2728 251.112 37.1755 250.714 38.8389 249.916C40.5023 249.118 41.9036 247.945 43.043 246.396C44.2051 244.823 45.0824 242.898 45.6748 240.619C46.2673 238.318 46.5635 235.674 46.5635 232.689ZM101.285 229.545V232.689C101.285 236.426 100.818 239.776 99.8838 242.738C98.9495 245.701 97.6051 248.218 95.8506 250.292C94.096 252.366 91.9883 253.949 89.5273 255.043C87.0892 256.137 84.3548 256.684 81.3242 256.684C78.3848 256.684 75.6846 256.137 73.2236 255.043C70.7855 253.949 68.6663 252.366 66.8662 250.292C65.0889 248.218 63.7103 245.701 62.7305 242.738C61.7507 239.776 61.2607 236.426 61.2607 232.689V229.545C61.2607 225.808 61.7393 222.47 62.6963 219.53C63.6761 216.568 65.0547 214.05 66.832 211.977C68.6094 209.88 70.7171 208.285 73.1553 207.191C75.6162 206.098 78.3164 205.551 81.2559 205.551C84.2865 205.551 87.0208 206.098 89.459 207.191C91.9199 208.285 94.0277 209.88 95.7822 211.977C97.5596 214.05 98.9154 216.568 99.8496 219.53C100.807 222.47 101.285 225.808 101.285 229.545ZM94.7568 232.689V229.477C94.7568 226.514 94.4492 223.894 93.834 221.615C93.2415 219.337 92.3643 217.423 91.2021 215.873C90.04 214.324 88.6159 213.15 86.9297 212.353C85.2663 211.555 83.375 211.156 81.2559 211.156C79.2051 211.156 77.348 211.555 75.6846 212.353C74.0439 213.15 72.6312 214.324 71.4463 215.873C70.2842 217.423 69.3841 219.337 68.7461 221.615C68.1081 223.894 67.7891 226.514 67.7891 229.477V232.689C67.7891 235.674 68.1081 238.318 68.7461 240.619C69.3841 242.898 70.2956 244.823 71.4805 246.396C72.6882 247.945 74.1123 249.118 75.7529 249.916C77.4163 250.714 79.2734 251.112 81.3242 251.112C83.4661 251.112 85.3688 250.714 87.0322 249.916C88.6956 249.118 90.097 247.945 91.2363 246.396C92.3984 244.823 93.2757 242.898 93.8682 240.619C94.4606 238.318 94.7568 235.674 94.7568 232.689ZM149.479 229.545V232.689C149.479 236.426 149.011 239.776 148.077 242.738C147.143 245.701 145.799 248.218 144.044 250.292C142.289 252.366 140.182 253.949 137.721 255.043C135.283 256.137 132.548 256.684 129.518 256.684C126.578 256.684 123.878 256.137 121.417 255.043C118.979 253.949 116.86 252.366 115.06 250.292C113.282 248.218 111.904 245.701 110.924 242.738C109.944 239.776 109.454 236.426 109.454 232.689V229.545C109.454 225.808 109.933 222.47 110.89 219.53C111.869 216.568 113.248 214.05 115.025 211.977C116.803 209.88 118.91 208.285 121.349 207.191C123.81 206.098 126.51 205.551 129.449 205.551C132.48 205.551 135.214 206.098 137.652 207.191C140.113 208.285 142.221 209.88 143.976 211.977C145.753 214.05 147.109 216.568 148.043 219.53C149 222.47 149.479 225.808 149.479 229.545ZM142.95 232.689V229.477C142.95 226.514 142.643 223.894 142.027 221.615C141.435 219.337 140.558 217.423 139.396 215.873C138.233 214.324 136.809 213.15 135.123 212.353C133.46 211.555 131.568 211.156 129.449 211.156C127.398 211.156 125.541 211.555 123.878 212.353C122.237 213.15 120.825 214.324 119.64 215.873C118.478 217.423 117.577 219.337 116.939 221.615C116.301 223.894 115.982 226.514 115.982 229.477V232.689C115.982 235.674 116.301 238.318 116.939 240.619C117.577 242.898 118.489 244.823 119.674 246.396C120.882 247.945 122.306 249.118 123.946 249.916C125.61 250.714 127.467 251.112 129.518 251.112C131.66 251.112 133.562 250.714 135.226 249.916C136.889 249.118 138.29 247.945 139.43 246.396C140.592 244.823 141.469 242.898 142.062 240.619C142.654 238.318 142.95 235.674 142.95 232.689ZM189.332 223.666L180.411 237.406L174.396 237.372V236.928L184.479 223.666H189.332ZM180.411 237.099L189.332 250.873H184.479L174.396 237.577V237.133L180.411 237.099ZM200.646 223.666L191.725 237.406L185.709 237.372V236.928L195.792 223.666H200.646ZM191.725 237.099L200.646 250.873H195.792L185.709 237.577V237.133L191.725 237.099ZM225.016 239.491L238.175 206.234H245.763L228.16 247.694C227.659 248.856 227.101 249.984 226.485 251.078C225.87 252.149 225.118 253.106 224.229 253.949C223.341 254.792 222.236 255.465 220.914 255.966C219.615 256.467 217.997 256.718 216.061 256.718C215.514 256.718 214.864 256.684 214.112 256.615C213.36 256.57 212.87 256.513 212.643 256.444L212.848 251.181C213.098 251.226 213.588 251.272 214.317 251.317C215.047 251.34 215.582 251.352 215.924 251.352C217.223 251.352 218.248 251.09 219 250.565C219.752 250.041 220.356 249.381 220.812 248.583C221.29 247.763 221.723 246.931 222.11 246.088L225.016 239.491ZM213.839 206.234L227.682 237.235L229.322 243.354L223.785 243.764L206.456 206.234H213.839ZM260.528 206.234V256H253.932V206.234H260.528ZM291.188 206.234L269.586 233.612H257.896L256.871 228.144H265.655L283.019 206.234H291.188ZM284.557 256L265.86 232.758L269.552 226.981L292.623 256H284.557ZM328.58 223.666L319.659 237.406L313.644 237.372V236.928L323.727 223.666H328.58ZM319.659 237.099L328.58 250.873H323.727L313.644 237.577V237.133L319.659 237.099ZM339.894 223.666L330.973 237.406L324.957 237.372V236.928L335.04 223.666H339.894ZM330.973 237.099L339.894 250.873H335.04L324.957 237.577V237.133L330.973 237.099ZM350.934 206.234H357.325L373.629 246.806L389.898 206.234H396.324L376.09 256H371.1L350.934 206.234ZM348.849 206.234H354.488L355.411 236.586V256H348.849V206.234ZM392.735 206.234H398.375V256H391.812V236.586L392.735 206.234ZM429 210.644L412.525 256H405.792L424.762 206.234H429.103L429 210.644ZM442.809 256L426.3 210.644L426.197 206.234H430.538L449.576 256H442.809ZM441.954 237.577V242.978H413.995V237.577H441.954ZM474.596 236.483H461.3V231.117H474.596C477.171 231.117 479.256 230.707 480.851 229.887C482.446 229.066 483.608 227.927 484.337 226.469C485.089 225.01 485.465 223.347 485.465 221.479C485.465 219.77 485.089 218.163 484.337 216.659C483.608 215.155 482.446 213.948 480.851 213.036C479.256 212.102 477.171 211.635 474.596 211.635H462.838V256H456.241V206.234H474.596C478.355 206.234 481.534 206.884 484.132 208.183C486.729 209.481 488.701 211.282 490.045 213.583C491.389 215.862 492.062 218.471 492.062 221.41C492.062 224.6 491.389 227.323 490.045 229.579C488.701 231.835 486.729 233.555 484.132 234.74C481.534 235.902 478.355 236.483 474.596 236.483ZM518.79 206.234V256H512.296V206.234H518.79ZM534.786 206.234V211.635H496.334V206.234H534.786ZM557.857 210.644L541.383 256H534.649L553.619 206.234H557.96L557.857 210.644ZM571.666 256L555.157 210.644L555.055 206.234H559.396L578.434 256H571.666ZM570.812 237.577V242.978H542.853V237.577H570.812ZM582.843 250.771L591.764 237.03L597.779 237.064V237.509L587.696 250.771H582.843ZM582.843 223.563H587.696L597.779 236.859V237.304L591.764 237.338L582.843 223.563ZM594.771 250.771L603.692 237.03L609.708 237.064V237.509L599.625 250.771H594.771ZM594.771 223.563H599.625L609.708 236.859V237.304L603.692 237.338L594.771 223.563Z" fill="#22364A"/>
</svg>
