<svg width="79" height="76" viewBox="0 0 79 76" fill="none" xmlns="http://www.w3.org/2000/svg">
<circle cx="44" cy="41" r="35" fill="#CDE2F1" fill-opacity="0.5"/>
<path d="M35.0013 0C15.6707 0 0 15.6682 0 34.9937C0 54.3293 15.6707 70 35.0013 70C54.3318 70 69.9975 54.3268 69.9975 34.9937C69.9975 15.6682 54.3318 0 35.0013 0ZM35.0013 66.4153C17.6458 66.4153 3.58474 52.3467 3.58474 34.9912C3.58474 17.6433 17.6458 3.57973 35.0013 3.57973C52.3517 3.57973 66.4153 17.6433 66.4153 34.9912C66.4128 52.3467 52.3492 66.4153 35.0013 66.4153Z" fill="#5A93CA"/>
<path d="M27.7508 43.7986C32.739 49.5569 38.8145 54 43.768 54C45.9946 54 47.9449 53.1034 49.5156 51.111C50.4302 49.9354 51 48.5606 51 47.2057C51 46.2095 50.672 45.2531 49.8435 44.5757L44.562 40.2321C43.7508 39.5945 43.0776 39.2757 42.4563 39.2757C41.6623 39.2757 40.9719 39.7938 40.1779 40.6904L38.9525 42.0851C38.7626 42.3043 38.521 42.4039 38.2966 42.4039C38.0204 42.4039 37.7788 42.2844 37.589 42.1847C36.5361 41.5272 34.7065 39.7141 32.9978 37.7615C31.3063 35.8088 29.7357 33.6968 29.1834 32.4615C29.0798 32.2424 28.9935 31.9633 28.9935 31.6645C28.9935 31.4055 29.0626 31.1465 29.2524 30.9273L30.4606 29.4728C31.2373 28.5562 31.686 27.7593 31.686 26.8427C31.686 26.1255 31.4099 25.3484 30.8403 24.412L27.1294 18.3748C26.5253 17.4184 25.6796 17 24.7476 17C23.6084 17 22.4175 17.5977 21.4164 18.7335C19.7422 20.5865 19 22.8778 19 25.4082C19 31.1266 22.7799 38.0603 27.7508 43.7986Z" fill="#5A93CA"/>
</svg>
